<svg width="37" height="37" viewBox="0 0 37 37" fill="none" xmlns="http://www.w3.org/2000/svg">
<path d="M31.1874 16.5302V21.8265C31.1874 24.1731 31.1858 25.8332 31.078 27.1302C30.9718 28.4071 30.7706 29.1852 30.4525 29.7953C29.8336 30.9839 28.8622 31.9534 27.6703 32.5708C27.0587 32.8881 26.2787 33.0889 24.9987 33.1948C23.6986 33.3023 22.0345 33.304 19.6824 33.304H14.7839C12.4317 33.304 10.7677 33.3023 9.46778 33.1948C8.18745 33.0889 7.40774 32.8881 6.796 32.5708C5.60432 31.9534 4.63267 30.9839 4.01363 29.7953C3.69586 29.1852 3.49465 28.4071 3.38829 27.1302C3.28037 25.8332 3.27901 24.1731 3.27901 21.8265V16.94C3.27901 14.5934 3.28037 12.9335 3.38829 11.6366C3.49465 10.3594 3.69586 9.58156 4.01363 8.9713C4.63267 7.78249 5.60432 6.81318 6.796 6.19564C7.40774 5.87862 8.18745 5.6779 9.46778 5.57184C10.7677 5.46413 12.4316 5.46283 14.7839 5.46283H20.0931C20.1405 4.31626 20.37 3.21655 20.7532 2.19171H14.711C12.4481 2.19167 10.648 2.19167 9.1964 2.31193C7.70965 2.43508 6.44223 2.69285 5.28446 3.29281C3.49387 4.2207 2.03393 5.67716 1.1038 7.46344C0.502386 8.61838 0.244 9.88275 0.120545 11.3659C7.08486e-07 12.814 0 14.6097 0 16.8672V21.8993C0 24.1567 7.08486e-07 25.9526 0.120545 27.4009C0.244 28.8839 0.502386 30.1482 1.1038 31.3033C2.03393 33.0893 3.49387 34.5458 5.28446 35.474C6.44223 36.0738 7.70965 36.3314 9.1964 36.4549C10.648 36.5751 12.448 36.5751 14.7109 36.5751H19.7553C22.0181 36.5751 23.8183 36.5751 25.27 36.4549C26.7567 36.3314 28.024 36.0738 29.1819 35.474C30.9722 34.5458 32.4322 33.0893 33.3626 31.3033C33.9639 30.1482 34.2221 28.8839 34.3459 27.4009C34.4664 25.9526 34.4664 24.1567 34.4664 21.8997V15.8716C33.4389 16.2541 32.3367 16.4829 31.1874 16.5302Z" fill="white"/>
<path d="M22 7.36C22 3.29519 25.3032 0 29.3778 0C33.4524 0 36.7556 3.29519 36.7556 7.36C36.7556 11.4248 33.4524 14.72 29.3778 14.72C25.3032 14.72 22 11.4248 22 7.36Z" fill="#7214FF"/>
</svg>
